<svg viewBox="0 0 800 800" xmlns="http://www.w3.org/2000/svg"><path d="M476.17483406887357,477.954281646354 L455.72944889441914,468.70998365433434 M455.72944889441914,468.70998365433434 L432.04794736764995,462.55858731222247 M432.04794736764995,462.55858731222247 L406.5057025153918,459.8569872916679 M406.5057025153918,459.8569872916679 L380.5858331783913,460.7619118822962 M380.5858331783913,460.7619118822962 L355.7933422646763,465.22086343743456 M355.7933422646763,465.22086343743456 L333.56793018068447,472.97515807968193 M333.56793018068447,472.97515807968193 L315.20062071224027,483.57485251864307 M315.20062071224027,483.57485251864307 L301.75885135579296,496.4047324544594 M301.75885135579296,496.4047324544594 L294.0244513829682,510.719875808626 M294.0244513829682,510.719875808626 L292.44805532910215,525.688798568737 M292.44805532910215,525.688798568737 L297.12265814867595,540.4416531120796 M297.12265814867595,540.4416531120796 L307.77787698249784,554.1207790177053 M307.77787698249784,554.1207790177053 L323.7953954556049,565.9305915486893 M323.7953954556049,565.9305915486893 L344.24465932691606,575.18397501554 M344.24465932691606,575.18397501554 L367.93690838962567,581.342375458288 M367.93690838962567,581.342375458288 L393.4943074798384,584.047293654148 M393.4943074798384,584.047293654148 L419.430266108988,583.14124115408 M419.430266108988,583.14124115408 L444.2360954999418,578.6769739989136 M444.2360954999418,578.6769739989136 L466.46903956730796,570.9143938058942 M466.46903956730796,570.9143938058942 L484.836349034975,560.3053419849992 M484.836349034975,560.3053419849992 L498.27058640716507,547.4671764984482 M498.27058640716507,547.4671764984482 L505.9916479033022,533.1467175465664 M505.9916479033022,533.1467175465664 L507.5519546665283,518.1766668789571 M507.5519546665283,518.1766668789571 L502.8621976101632,503.4271305087186 M502.8621976101632,503.4271305087186 L492.1962312402136,489.75500870465646 M492.1962312402136,489.75500870465646 L476.17483406887357,477.954281646354 M476.17483406887357,477.954281646354 L476.18329677171306,433.9661299532063 M476.18329677171306,433.9661299532063 L492.206474511348,445.76554487801377 M492.206474511348,445.76554487801377 L502.8736267172415,459.4361466619986 M502.8736267172415,459.4361466619986 L507.5639057575265,474.18404346417503 M507.5639057575265,474.18404346417503 L506.0034265017322,489.152430300942 M506.0034265017322,489.152430300942 L498.28150775601995,503.4712978556298 M498.28150775601995,503.4712978556298 L484.8457779437969,516.3080368643077 M484.8457779437969,516.3080368643077 L466.47642743738055,526.9159100288666 M466.47642743738055,526.9159100288666 L444.24101234975126,534.6776278860974 M444.24101234975126,534.6776278860974 L419.43242570766694,539.1413991417814 M419.43242570766694,539.1413991417814 L393.4935840905005,540.0473509985059 M393.4935840905005,540.0473509985059 L367.93334413113064,537.3427332648 M367.93334413113064,537.3427332648 L344.23846170630065,531.1850169274496 M344.23846170630065,531.1850169274496 L323.7869252265995,521.9326614519766 M323.7869252265995,521.9326614519766 L307.7676270472749,510.1241610548246 M307.7676270472749,510.1241610548246 L297.1112247662488,496.4465551695357 M297.1112247662488,496.4465551695357 L292.43610333092465,481.695340194378 M292.43610333092465,481.695340194378 L294.0126754533528,466.7280812650676 M294.0126754533528,466.7280812650676 L301.7479356403528,452.4145293078979 M301.7479356403528,452.4145293078979 L315.1911991108866,439.5860758496479 M315.1911991108866,439.5860758496479 L333.5605496180805,428.98756006667634 M333.5605496180805,428.98756006667634 L355.7884310482823,421.2341277599109 M355.7884310482823,421.2341277599109 L380.5836762485275,416.7756721040584 M380.5836762485275,416.7756721040584 L406.5064249975503,415.8708481567319 M406.5064249975503,415.8708481567319 L432.0515073507955,418.57214771525514 M432.0515073507955,418.57214771525514 L455.7356398509455,424.72285995222853 M455.7356398509455,424.72285995222853 L476.18329677171306,433.9661299532063 M447.614005253941,494.4438838509341 L434.8351845988403,488.66513403241566 M434.8351845988403,488.66513403241566 L420.0329862529542,484.8196919141808 M420.0329862529542,484.8196919141808 L404.0673076204705,483.1308030158634 M404.0673076204705,483.1308030158634 L387.8655070415112,483.69651296159316 M387.8655070415112,483.69651296159316 L372.36863495629916,486.4839785150072 M372.36863495629916,486.4839785150072 L358.4768719725692,491.331383119351 M358.4768719725692,491.331383119351 L346.9973025099912,497.9572885290024 M346.9973025099912,497.9572885290024 L338.59707851326255,505.9769328769302 M338.59707851326255,505.9769328769302 L333.7646439776396,514.9245218852968 M333.7646439776396,514.9245218852968 L332.7812817934638,524.2802294618571 M332.7812817934638,524.2802294618571 L335.7046853382257,533.500374969615 M335.7046853382257,533.500374969615 L342.3654557527977,542.0490080967165 M342.3654557527977,542.0490080967165 L352.3768589865808,549.4290758852467 M352.3768589865808,549.4290758852467 L365.1571947580278,555.2113747167772 M365.1571947580278,555.2113747167772 L379.9635913604593,559.0595528108995 M379.9635913604593,559.0595528108995 L395.93518961684447,560.7497378715091 M395.93518961684447,560.7497378715091 L412.14327507413253,560.1835873362177 M412.14327507413253,560.1835873362177 L427.64535750313,557.3940453779969 M427.64535750313,557.3940453779969 L441.540062667175,552.5434042305252 M441.540062667175,552.5434042305252 L453.01963212963443,545.9138435935063 M453.01963212963443,545.9138435935063 L461.41691394591334,537.8909627027926 M461.41691394591334,537.8909627027926 L466.2441381378351,528.9412972886247 M466.2441381378351,528.9412972886247 L467.2212154439121,519.5851491231984 M467.2212154439121,519.5851491231984 L464.29189227542633,510.3662997766957 M464.29189227542633,510.3662997766957 L457.6269236042805,501.82040262679544 M457.6269236042805,501.82040262679544 L447.614005253941,494.4438838509341 M447.614005253941,494.4438838509341 L447.58228949645036,758.1786733512704 M447.58228949645036,758.1786733512704 L434.81198187497404,752.3960775468631 M434.81198187497404,752.3960775468631 L420.0196436897643,748.5480760106099 M420.0196436897643,748.5480760106099 L404.0645997820557,746.8580630039072 M404.0645997820557,746.8580630039072 L387.8735911161216,747.4241494829356 M387.8735911161216,747.4241494829356 L372.3870416621655,750.213470325971 M372.3870416621655,750.213470325971 L358.5045327044753,755.0641011556585 M358.5045327044753,755.0641011556585 L347.0326111892879,761.6944162287507 M347.0326111892879,761.6944162287507 L338.63798458986116,769.7193974037699 M338.63798458986116,769.7193974037699 L333.8087712649913,778.6729402466079 M333.8087712649913,778.6729402466079 L332.82606631091727,788.0348726479739 M332.82606631091727,788.0348726479739 L335.74752418926676,797.2611522074175 M335.74752418926676,797.2611522074175 L342.4038584466539,805.8154721255305 M342.4038584466539,805.8154721255305 L352.4085923629596,813.2004489466531 M352.4085923629596,813.2004489466531 L365.18041308264543,818.9865937593487 M365.18041308264543,818.9865937593487 L379.97694393231785,822.8373312678477 M379.97694393231785,822.8373312678477 L395.9378995789815,824.5286404351172 M395.9378995789815,824.5286404351172 L412.1351847517788,823.9621133671136 M412.1351847517788,823.9621133671136 L427.62693760933604,821.1707161220354 M427.62693760933604,821.1707161220354 L441.51238482835356,816.316848753528 M441.51238482835356,816.316848753528 L452.98430634342276,809.6828784579332 M452.98430634342276,809.6828784579332 L461.3759946813878,801.654660744436 M461.3759946813878,801.654660744436 L466.2000046027404,792.6990414985603 M466.2000046027404,792.6990414985603 L467.1764330501809,783.336668508915 M467.1764330501809,783.336668508915 L464.24906343305327,774.1116851090012 M464.24906343305327,774.1116851090012 L457.5885365111751,765.5601011644479 M457.5885365111751,765.5601011644479 L447.58228949645036,758.1786733512704" stroke="black"  stroke-width="4"  fill="red"/>
<path d="M476.18329677171306,433.9661299532063 L476.26802733667876,-6.453558114545103 M323.7869252265997,521.9326614519767 L323.702119261779,81.41483012871373 M476.18329677171306,433.9661299532063 L492.206474511348,445.76554487801377 M492.206474511348,445.76554487801377 L502.8736267172415,459.4361466619986 M502.8736267172415,459.4361466619986 L507.5639057575265,474.18404346417503 M507.5639057575265,474.18404346417503 L506.0034265017322,489.152430300942 M506.0034265017322,489.152430300942 L498.28150775601995,503.4712978556298 M498.28150775601995,503.4712978556298 L484.8457779437969,516.3080368643077 M484.8457779437969,516.3080368643077 L466.47642743738055,526.9159100288666 M466.47642743738055,526.9159100288666 L444.24101234975126,534.6776278860974 M444.24101234975126,534.6776278860974 L419.43242570766694,539.1413991417814 M419.43242570766694,539.1413991417814 L393.4935840905005,540.0473509985059 M393.4935840905005,540.0473509985059 L367.93334413113064,537.3427332648 M367.93334413113064,537.3427332648 L344.23846170630065,531.1850169274496 M344.23846170630065,531.1850169274496 L323.7869252265997,521.9326614519767 M476.26802733667876,-6.453558114545103 L492.3090325510309,5.332687291279171 M492.3090325510309,5.332687291279171 L502.98805763495966,18.988033049280375 M502.98805763495966,18.988033049280375 L507.6835629123675,33.719473946376354 M507.6835629123675,33.719473946376354 L506.12135663102305,48.6711613498569 M506.12135663102305,48.6711613498569 L498.39085490832827,62.97405646010634 M498.39085490832827,62.97405646010634 L484.94018243765333,75.79647826996256 M484.94018243765333,75.79647826996256 L466.55039656719157,86.39252155286124 M466.55039656719157,86.39252155286124 L444.29024103348553,94.14558435645813 M444.29024103348553,94.14558435645813 L419.45404813003285,98.60437838906171 M419.45404813003285,98.60437838906171 L393.4863413420951,99.50932011280628 M393.4863413420951,99.50932011280628 L367.8976579166054,96.8077180452172 M367.8976579166054,96.8077180452172 L344.17640963832775,90.65686790749214 M344.17640963832775,90.65686790749214 L323.702119261779,81.41483012871373 M323.7869252265997,521.9326614519767 L307.7676270472749,510.1241610548246 M307.7676270472749,510.1241610548246 L297.1112247662488,496.4465551695357 M297.1112247662488,496.4465551695357 L292.43610333092465,481.695340194378 M292.43610333092465,481.695340194378 L294.0126754533528,466.7280812650676 M294.0126754533528,466.7280812650676 L301.7479356403528,452.4145293078979 M301.7479356403528,452.4145293078979 L315.1911991108866,439.5860758496479 M315.1911991108866,439.5860758496479 L333.5605496180805,428.98756006667634 M333.5605496180805,428.98756006667634 L355.7884310482823,421.2341277599109 M355.7884310482823,421.2341277599109 L380.5836762485275,416.7756721040584 M380.5836762485275,416.7756721040584 L406.5064249975503,415.8708481567319 M406.5064249975503,415.8708481567319 L432.0515073507955,418.57214771525514 M432.0515073507955,418.57214771525514 L455.7356398509455,424.72285995222853 M455.7356398509455,424.72285995222853 L476.18329677171306,433.9661299532063 M323.702119261779,81.41483012871373 L307.6650022443355,69.61949929105617 M307.6650022443355,69.61949929105617 L296.9967510165344,55.95714946298199 M296.9967510165344,55.95714946298199 L292.3164370876325,41.222390407700686 M292.3164370876325,41.222390407700686 L293.89477206121575,26.27183090664721 M293.89477206121575,26.27183090664721 L301.638644925638,11.974251370213779 M301.638644925638,11.974251370213779 L315.0968678258988,-0.8398849261596979 M315.0968678258988,-0.8398849261596979 L333.4866536971415,-11.426570869194336 M333.4866536971415,-11.426570869194336 L355.73925880214887,-19.171348159269087 M355.73925880214887,-19.171348159269087 L380.5620805633202,-23.62482661574188 M380.5620805633202,-23.62482661574188 L406.51365865750284,-24.528640435117097 M406.51365865750284,-24.528640435117097 L432.08715073331757,-21.83035652791625 M432.08715073331757,-21.83035652791625 L455.7976251556557,-15.686510459338933 M455.7976251556557,-15.686510459338933 L476.26802733667876,-6.453558114545103" stroke="black"  stroke-width="4"  fill="red"/></svg>